<svg id="Layer_1" data-name="Layer 1" xmlns="http://www.w3.org/2000/svg" xmlns:xlink="http://www.w3.org/1999/xlink" viewBox="0 0 122.37 122.37"><defs><style>.cls-1{fill:url(#linear-gradient);}.cls-2{fill:url(#linear-gradient-2);}</style><linearGradient id="linear-gradient" x1="567.25" y1="476.02" x2="689.62" y2="476.02" gradientUnits="userSpaceOnUse"><stop offset="0" stop-color="#4fc646"/><stop offset="1" stop-color="#3fb06b"/></linearGradient><linearGradient id="linear-gradient-2" x1="592.99" y1="476.02" x2="661.98" y2="476.02" xlink:href="#linear-gradient"/></defs><title>Untitled-1</title><path class="cls-1" d="M667.12,537.21H589.75a22.52,22.52,0,0,1-22.5-22.5V437.34a22.52,22.52,0,0,1,22.5-22.5h77.37a22.53,22.53,0,0,1,22.5,22.5v77.37A22.53,22.53,0,0,1,667.12,537.21ZM589.75,419.84a17.52,17.52,0,0,0-17.5,17.5v77.37a17.52,17.52,0,0,0,17.5,17.5h77.37a17.52,17.52,0,0,0,17.5-17.5V437.34a17.52,17.52,0,0,0-17.5-17.5Z" transform="translate(-567.25 -414.84)"/><path class="cls-2" d="M661.77,441.71l-42.9,69.46a2.3,2.3,0,0,1-3.83.12l-21.81-30.52a1.25,1.25,0,0,1,1.65-1.81l20.65,12.11,44.24-50.84A1.25,1.25,0,0,1,661.77,441.71Z" transform="translate(-567.25 -414.84)"/></svg>